<?xml version="1.0" encoding="utf-8"?>
<!-- Generator: Adobe Illustrator 24.2.3, SVG Export Plug-In . SVG Version: 6.00 Build 0)  -->
<svg version="1.1" id="Capa_1" xmlns="http://www.w3.org/2000/svg" xmlns:xlink="http://www.w3.org/1999/xlink" x="0px" y="0px"
	 viewBox="0 0 213 213" style="enable-background:new 0 0 213 213;" xml:space="preserve">
<style type="text/css">
	.st0{fill:#FFFFFF;stroke:#181443;stroke-width:4.3263;stroke-linecap:round;stroke-linejoin:round;stroke-miterlimit:10;}
	
		.st1{fill:none;stroke:#00A8E8;stroke-width:4.3263;stroke-linecap:round;stroke-linejoin:round;stroke-miterlimit:10;stroke-dasharray:16.22,16.22;}
	.st2{fill:#00A8E8;stroke:#00A8E8;stroke-width:4.3263;stroke-linecap:round;stroke-linejoin:round;stroke-miterlimit:10;}
</style>
<path class="st0" d="M152.8,92.3c-1.3-13.8-12.5-24.9-26.5-26.3c0,0,0,0,0,0c-1.7-0.2-3.2,1.3-3.1,3c0.1,2-0.2,4.2-1,6.5
	c-2.4,6.1-8.2,10.5-14.8,10.7c-9.1,0.2-16.6-7.1-16.6-16.2c0-0.3,0-0.6,0-0.9c0.1-1.7-1.4-3.2-3.1-3c0,0,0,0,0,0
	c-13.9,1.4-25.2,12.6-26.5,26.3c-0.9,9.9,3.1,19,10.1,24.9c2.1,1.8,3.3,4.4,3.3,7.2c0,0,0,0,0,0c0,15.9,4.7,30,12,39.3
	c3.1,4,9.6,1.7,9.6-3.3c0-8.2,0-18.7,0-25c0-5.7,4.3-10.6,10.1-11c6.3-0.4,11.5,4.5,11.5,10.6v25.3c0,5,6.5,7.3,9.6,3.3
	c7.3-9.3,12-23.5,12-39.3c0,0,0,0,0,0c0-2.8,1.2-5.4,3.3-7.2C149.6,111.3,153.7,102.2,152.8,92.3z"/>
<path class="st1" d="M71.8,93c0-10.3,8.5-18.7,18.9-18.7"/>
<path class="st2" d="M118.7,47c-0.9,0.1-1.9,0.3-2.8,0.5c-5.9,1.5-12,1.5-18,0c-0.9-0.2-1.9-0.4-2.8-0.5c-2.4-0.3-4.5,1.5-4.4,3.9
	c0,1.7,0.3,3.5,1.1,5.4c2.4,6.1,8.2,10.5,14.8,10.7c9.1,0.2,16.6-7.1,16.6-16.2c0,0,0,0,0,0C123.2,48.4,121,46.7,118.7,47z"/>
</svg>
